<?xml version="1.0" encoding="iso-8859-1"?>
<!-- Generator: Adobe Illustrator 19.0.0, SVG Export Plug-In . SVG Version: 6.00 Build 0)  -->
<svg version="1.1" id="Layer_1" xmlns="http://www.w3.org/2000/svg" xmlns:xlink="http://www.w3.org/1999/xlink" x="0px" y="0px"
	 viewBox="0 0 512 512" style="enable-background:new 0 0 512 512;" xml:space="preserve">
<path style="fill:#6E4848;" d="M336.593,101.926h-28.444V54.519c0-2.616-2.13-4.741-4.741-4.741h-94.815
	c-2.611,0-4.741,2.125-4.741,4.741v47.407h-28.444V54.519c0-18.296,14.888-33.185,33.185-33.185h94.815
	c18.296,0,33.185,14.888,33.185,33.185V101.926z"/>
<path style="fill:#464655;" d="M436.148,443.259v37.926c0,5.236,4.245,9.481,9.481,9.481h18.963c5.236,0,9.481-4.245,9.481-9.481
	v-37.926H436.148z"/>
<path style="fill:#5B5D6E;" d="M464.593,490.667H445.63c-5.236,0-9.481-4.245-9.481-9.481v-9.481h37.926v9.481
	C474.074,486.421,469.829,490.667,464.593,490.667z"/>
<path style="fill:#464655;" d="M37.926,443.259v37.926c0,5.236,4.245,9.481,9.481,9.481H66.37c5.236,0,9.481-4.245,9.481-9.481
	v-37.926H37.926z"/>
<path style="fill:#9B735A;" d="M493.037,452.741H18.963C8.489,452.741,0,444.251,0,433.778v-322.37
	c0-10.473,8.489-18.963,18.963-18.963h474.074c10.473,0,18.963,8.489,18.963,18.963v322.37
	C512,444.25,503.509,452.741,493.037,452.741z"/>
<rect x="28.444" y="120.889" style="fill:#8C5F50;" width="455.111" height="303.407"/>
<rect x="75.852" y="92.444" style="fill:#6E4848;" width="37.926" height="360.296"/>
<rect x="75.852" y="92.444" style="fill:#785353;" width="37.926" height="28.444"/>
<path style="fill:#FFC850;" d="M113.778,253.63H75.852c-10.453,0-18.963-8.505-18.963-18.963v-37.926
	c0-10.458,8.51-18.963,18.963-18.963h37.926c10.453,0,18.963,8.505,18.963,18.963v37.926
	C132.741,245.125,124.231,253.63,113.778,253.63z M75.852,196.741v37.926h37.935l-0.009-37.926H75.852z"/>
<path style="fill:#FFDC64;" d="M94.815,215.704c-5.241,0-9.481-4.245-9.481-9.481v-18.963c0-5.236,4.241-9.481,9.481-9.481
	c5.241,0,9.481,4.245,9.481,9.481v18.963C104.296,211.458,100.056,215.704,94.815,215.704z"/>
<path style="fill:#5B5D6E;" d="M66.37,490.667H47.407c-5.236,0-9.481-4.245-9.481-9.481v-9.481h37.926v9.481
	C75.852,486.421,71.607,490.667,66.37,490.667z"/>
<rect x="398.222" y="92.444" style="fill:#6E4848;" width="37.926" height="360.296"/>
<rect x="398.222" y="92.444" style="fill:#785353;" width="37.926" height="28.444"/>
<path style="fill:#FFC850;" d="M436.148,253.63h-37.926c-10.453,0-18.963-8.505-18.963-18.963v-37.926
	c0-10.458,8.51-18.963,18.963-18.963h37.926c10.453,0,18.963,8.505,18.963,18.963v37.926
	C455.111,245.125,446.602,253.63,436.148,253.63z M398.222,196.741v37.926h37.935l-0.009-37.926H398.222z"/>
<path style="fill:#FFDC64;" d="M417.185,215.704c-5.241,0-9.481-4.245-9.481-9.481v-18.963c0-5.236,4.241-9.481,9.481-9.481
	c5.241,0,9.481,4.245,9.481,9.481v18.963C426.667,211.458,422.426,215.704,417.185,215.704z"/>
<path style="fill:#E1A546;" d="M208.593,73.481h-9.481c-10.453,0-18.963,8.505-18.963,18.963v66.37h18.963v-66.37h9.481
	c5.241,0,9.481-4.245,9.481-9.481C218.074,77.727,213.833,73.481,208.593,73.481z"/>
<path style="fill:#FFDC64;" d="M205.816,156.038l-9.481-9.481c-3.703-3.703-9.705-3.703-13.409,0l-9.481,9.481
	c-1.778,1.778-2.777,4.19-2.777,6.705v52.961c0,5.236,4.245,9.481,9.481,9.481h18.963c5.236,0,9.481-4.245,9.481-9.481v-52.961
	C208.593,160.228,207.593,157.816,205.816,156.038z"/>
<g>
</g>
<g>
</g>
<g>
</g>
<g>
</g>
<g>
</g>
<g>
</g>
<g>
</g>
<g>
</g>
<g>
</g>
<g>
</g>
<g>
</g>
<g>
</g>
<g>
</g>
<g>
</g>
<g>
</g>
</svg>
